# xmcd
#
# Track frame offsets:
#	150
#	21919
#	40273
#	56608
#	71101
#	87700
#	106447
#	126108
#	140587
#	159605
#	181374
#	199728
#	216063
#	230556
#	247155
#	265902
#	285563
#	300042
#
# Disc length: 4254 seconds
#
# Revision: 1
# Processed by: cddbd v1.5.2PL0 Copyright (c) Steve Scherf et al.
# Submitted via: audiograbber 1.83.01
#
DISCID=0e109c12
DTITLE=Various Artist - PHM20803-1
DYEAR=2008
DGENRE=caraoke
TTITLE0=Just A Dream - Carrie Underwood
TTITLE1=So Small - Carrie Underwood
TTITLE2=The More Boys I Meet - Carrie Underwood
TTITLE3=Get My Drink On - Toby Keith
TTITLE4=Red Umbrella - Faith Hill
TTITLE5=Winner At A Losing Game - Rascal Flatts
TTITLE6=Ready, Set, Don't Go - Billy Ray Cyrus
TTITLE7=Gunpowder and Lead - Miranda Lambert
TTITLE8=Nothin' To Die For - Tim MGraw
TTITLE9=Just A Dream - Carrie Underwood (vocal)
TTITLE10=So Small - Carrie Underwood (vocal)
TTITLE11=The More Boys I Meet - Carrie Underwood (ocal)
TTITLE12=Get My Drink On - Toby Keith (vocal)
TTITLE13=Red Umbrella - Faith Hill (vocal)
TTITLE14=Winner At A Losing Game - Rascal Flatts (vocal)
TTITLE15=Ready, Set, Don't Go - Billy Ray Cyrus (vocal)
TTITLE16=Gunpowder and Lead - Miranda Lambert (vocal)
TTITLE17=Nothin' To Die For - Tim McGraw (vocal)
EXTD=
EXTT0=
EXTT1=
EXTT2=
EXTT3=
EXTT4=
EXTT5=
EXTT6=
EXTT7=
EXTT8=
EXTT9=
EXTT10=
EXTT11=
EXTT12=
EXTT13=
EXTT14=
EXTT15=
EXTT16=
EXTT17=
PLAYORDER=
